<?xml version="1.0" standalone="no"?>
<!DOCTYPE svg PUBLIC "-//W3C//DTD SVG 20010904//EN"
 "http://www.w3.org/TR/2001/REC-SVG-20010904/DTD/svg10.dtd">
<svg version="1.0" xmlns="http://www.w3.org/2000/svg"
 width="727.000000pt" height="1280.000000pt" viewBox="0 0 727.000000 1280.000000"
 preserveAspectRatio="xMidYMid meet">
<metadata>
Created by potrace 1.15, written by Peter Selinger 2001-2017
</metadata>
<g transform="translate(0.000000,1280.000000) scale(0.100000,-0.100000)"
fill="#000000" stroke="none">
<path d="M4590 12631 l0 -169 -1174 -2404 c-645 -1321 -1224 -2513 -1286
-2648 -471 -1023 -1261 -2886 -1957 -4615 -64 -160 -69 -170 -93 -167 -66 8
-64 9 -71 -33 -4 -22 -5 -42 -3 -44 2 -2 70 -17 151 -33 220 -43 712 -140
1108 -218 193 -38 649 -128 1015 -200 366 -72 848 -167 1073 -212 l407 -81 0
-26 c0 -14 -10 -99 -21 -188 -12 -90 -20 -165 -17 -168 12 -12 355 -47 583
-60 173 -9 177 -10 173 -48 l-3 -32 -325 -7 c-179 -3 -599 -11 -935 -17 -1806
-33 -1683 -29 -1762 -54 -40 -12 -72 -25 -70 -29 1 -4 88 -99 192 -210 105
-112 215 -231 245 -266 30 -34 61 -64 70 -67 37 -11 704 -101 995 -135 413
-47 586 -63 1510 -135 248 -20 502 -40 565 -45 63 -5 205 -16 315 -25 110 -9
310 -25 445 -36 352 -30 388 -29 482 9 42 17 96 43 120 58 24 15 97 59 163 97
165 96 235 147 344 252 100 97 191 206 265 322 50 79 166 305 166 324 0 13
-329 10 -1385 -11 -258 -5 -640 -12 -847 -16 l-378 -7 0 31 c0 23 4 29 18 27
25 -6 583 -26 742 -27 116 -1 149 2 239 26 124 32 274 89 431 163 106 51 122
62 210 152 69 70 112 125 157 201 118 198 238 493 371 915 294 925 265 816
264 1000 0 235 -49 472 -178 854 -145 431 -341 877 -789 1801 -234 482 -320
665 -425 905 -252 576 -515 1082 -853 1644 l-110 183 12 1187 c6 652 14 1471
18 1819 l6 632 -86 0 -87 0 0 -169z"/>
</g>
</svg>
